<svg xmlns="http://www.w3.org/2000/svg" width="800" height="400"><rect width="800" height="400" x="0" y="0" fill="#FFFFFF" id="background"/><g transform="translate(50,50)" id="visualization"><g id="axis"><g transform="translate(0,300)" fill="none" font-size="10" font-family="sans-serif" text-anchor="middle"><path class="domain" stroke="currentColor" d="M0,6V0H500V6"/><g class="tick" opacity="1" transform="translate(0,0)"><line stroke="currentColor" y2="6"/><text fill="currentColor" y="9" dy="0.71em">4</text></g><g class="tick" opacity="1" transform="translate(45,0)"><line stroke="currentColor" y2="6"/><text fill="currentColor" y="9" dy="0.71em">6</text></g><g class="tick" opacity="1" transform="translate(91,0)"><line stroke="currentColor" y2="6"/><text fill="currentColor" y="9" dy="0.71em">8</text></g><g class="tick" opacity="1" transform="translate(136,0)"><line stroke="currentColor" y2="6"/><text fill="currentColor" y="9" dy="0.71em">10</text></g><g class="tick" opacity="1" transform="translate(182,0)"><line stroke="currentColor" y2="6"/><text fill="currentColor" y="9" dy="0.71em">12</text></g><g class="tick" opacity="1" transform="translate(227,0)"><line stroke="currentColor" y2="6"/><text fill="currentColor" y="9" dy="0.71em">14</text></g><g class="tick" opacity="1" transform="translate(273,0)"><line stroke="currentColor" y2="6"/><text fill="currentColor" y="9" dy="0.71em">16</text></g><g class="tick" opacity="1" transform="translate(318,0)"><line stroke="currentColor" y2="6"/><text fill="currentColor" y="9" dy="0.71em">18</text></g><g class="tick" opacity="1" transform="translate(364,0)"><line stroke="currentColor" y2="6"/><text fill="currentColor" y="9" dy="0.71em">20</text></g><g class="tick" opacity="1" transform="translate(409,0)"><line stroke="currentColor" y2="6"/><text fill="currentColor" y="9" dy="0.71em">22</text></g><g class="tick" opacity="1" transform="translate(455,0)"><line stroke="currentColor" y2="6"/><text fill="currentColor" y="9" dy="0.71em">24</text></g><g class="tick" opacity="1" transform="translate(500,0)"><line stroke="currentColor" y2="6"/><text fill="currentColor" y="9" dy="0.71em">26</text></g><text x="500" dy="-5" text-anchor="end" style="font-family: Arial, sans-serif; font-size: 12px; fill: rgb(123, 123, 123); font-weight: bold;">sales</text></g><g fill="none" font-size="10" font-family="sans-serif" text-anchor="end"><path class="domain" stroke="currentColor" d="M-6,300H0V0H-6"/><g class="tick" opacity="1" transform="translate(0,300)"><line stroke="currentColor" x2="-6"/><text fill="currentColor" x="-9" dy="0.32em">2.0</text></g><g class="tick" opacity="1" transform="translate(0,275)"><line stroke="currentColor" x2="-6"/><text fill="currentColor" x="-9" dy="0.32em">2.5</text></g><g class="tick" opacity="1" transform="translate(0,250)"><line stroke="currentColor" x2="-6"/><text fill="currentColor" x="-9" dy="0.32em">3.0</text></g><g class="tick" opacity="1" transform="translate(0,225)"><line stroke="currentColor" x2="-6"/><text fill="currentColor" x="-9" dy="0.32em">3.5</text></g><g class="tick" opacity="1" transform="translate(0,200)"><line stroke="currentColor" x2="-6"/><text fill="currentColor" x="-9" dy="0.32em">4.0</text></g><g class="tick" opacity="1" transform="translate(0,175)"><line stroke="currentColor" x2="-6"/><text fill="currentColor" x="-9" dy="0.32em">4.5</text></g><g class="tick" opacity="1" transform="translate(0,150)"><line stroke="currentColor" x2="-6"/><text fill="currentColor" x="-9" dy="0.32em">5.0</text></g><g class="tick" opacity="1" transform="translate(0,125)"><line stroke="currentColor" x2="-6"/><text fill="currentColor" x="-9" dy="0.32em">5.5</text></g><g class="tick" opacity="1" transform="translate(0,100)"><line stroke="currentColor" x2="-6"/><text fill="currentColor" x="-9" dy="0.32em">6.0</text></g><g class="tick" opacity="1" transform="translate(0,75)"><line stroke="currentColor" x2="-6"/><text fill="currentColor" x="-9" dy="0.32em">6.5</text></g><g class="tick" opacity="1" transform="translate(0,50)"><line stroke="currentColor" x2="-6"/><text fill="currentColor" x="-9" dy="0.32em">7.0</text></g><g class="tick" opacity="1" transform="translate(0,25)"><line stroke="currentColor" x2="-6"/><text fill="currentColor" x="-9" dy="0.32em">7.5</text></g><g class="tick" opacity="1" transform="translate(0,0)"><line stroke="currentColor" x2="-6"/><text fill="currentColor" x="-9" dy="0.32em">8.0</text></g><text x="4" text-anchor="start" dominant-baseline="hanging" style="font-family: Arial, sans-serif; font-size: 12px; fill: rgb(123, 123, 123); font-weight: bold;">profit</text></g></g><g id="viz"><g><circle cx="23" cy="300" fill="rgb(251, 248, 176)" r="7.5" stroke="none"/></g><g><circle cx="477" cy="0" fill="rgb(248, 142, 83)" r="7.5" stroke="none"/></g><g><circle cx="250" cy="100" fill="rgb(94, 79, 162)" r="7.5" stroke="none"/></g><g><circle cx="364" cy="150" fill="rgb(137, 207, 165)" r="7.5" stroke="none"/></g><g><circle cx="136" cy="250" fill="rgb(158, 1, 66)" r="7.5" stroke="none"/></g></g><g id="labels"><g transform="translate(23,300)"><text x="0" y="0" text-anchor="middle" dominant-baseline="text-before-edge" transform="translate(0,0)" style="stroke-width: 2px; paint-order: stroke; stroke: white; stroke-linecap: round; stroke-linejoin: round;"><tspan x="0" y="0" dy="0"/></text></g><g transform="translate(477,0)"><text x="0" y="0" text-anchor="middle" dominant-baseline="text-before-edge" transform="translate(0,0)" style="stroke-width: 2px; paint-order: stroke; stroke: white; stroke-linecap: round; stroke-linejoin: round;"><tspan x="0" y="0" dy="0"/></text></g><g transform="translate(250,100)"><text x="0" y="0" text-anchor="middle" dominant-baseline="text-before-edge" transform="translate(0,0)" style="stroke-width: 2px; paint-order: stroke; stroke: white; stroke-linecap: round; stroke-linejoin: round;"><tspan x="0" y="0" dy="0"/></text></g><g transform="translate(364,150)"><text x="0" y="0" text-anchor="middle" dominant-baseline="text-before-edge" transform="translate(0,0)" style="stroke-width: 2px; paint-order: stroke; stroke: white; stroke-linecap: round; stroke-linejoin: round;"><tspan x="0" y="0" dy="0"/></text></g><g transform="translate(136,250)"><text x="0" y="0" text-anchor="middle" dominant-baseline="text-before-edge" transform="translate(0,0)" style="stroke-width: 2px; paint-order: stroke; stroke: white; stroke-linecap: round; stroke-linejoin: round;"><tspan x="0" y="0" dy="0"/></text></g></g></g><g id="legend" transform="translate(600,50)"><g transform="translate(5,0)"><g class="legendColor" transform="translate(0,0)"><g class="legendCells" transform="translate(0,15.5)"><g class="cell" transform="translate(0, 0)"><rect class="swatch" height="15" width="15" style="fill: rgb(158, 1, 66);"/><text class="label" transform="translate( 20, 12.5)" font-family="&quot;Arial&quot;, sans-serif" font-size="10px"><tspan x="0" dy="0em">centre</tspan></text></g><g class="cell" transform="translate(0, 20.5)"><rect class="swatch" height="15" width="15" style="fill: rgb(248, 142, 83);"/><text class="label" transform="translate( 20, 12.5)" font-family="&quot;Arial&quot;, sans-serif" font-size="10px"><tspan x="0" dy="0em">east</tspan></text></g><g class="cell" transform="translate(0, 41)"><rect class="swatch" height="15" width="15" style="fill: rgb(251, 248, 176);"/><text class="label" transform="translate( 20, 12.5)" font-family="&quot;Arial&quot;, sans-serif" font-size="10px"><tspan x="0" dy="0em">north</tspan></text></g><g class="cell" transform="translate(0, 61.5)"><rect class="swatch" height="15" width="15" style="fill: rgb(137, 207, 165);"/><text class="label" transform="translate( 20, 12.5)" font-family="&quot;Arial&quot;, sans-serif" font-size="10px"><tspan x="0" dy="0em">south</tspan></text></g><g class="cell" transform="translate(0, 82)"><rect class="swatch" height="15" width="15" style="fill: rgb(94, 79, 162);"/><text class="label" transform="translate( 20, 12.5)" font-family="&quot;Arial&quot;, sans-serif" font-size="10px"><tspan x="0" dy="0em">west</tspan></text></g></g><text class="legendTitle" font-family="&quot;Arial&quot;, sans-serif" font-size="12px" font-weight="bold"><tspan x="0" dy="0em">area</tspan></text></g></g></g></svg>